<mxfile host="app.diagrams.net" modified="2023-08-08T07:32:02.154Z" agent="Mozilla/5.0 (Windows NT 10.0; Win64; x64) AppleWebKit/537.36 (KHTML, like Gecko) Chrome/110.0.5481.100 Safari/537.36 Avast/110.0.20188.100" version="21.6.6" etag="Caq7fZwKXfZnUm1QVr3W" type="github">
  <diagram name="Page-1" id="zYzWGY5L5tc0gK4u0-SZ">
    <mxGraphModel>
      <root>
        <mxCell id="0" />
        <mxCell id="1" parent="0" />
      </root>
    </mxGraphModel>
  </diagram>
</mxfile>
